<svg xmlns="http://www.w3.org/2000/svg" viewBox="0 0 154 154">
  <circle cx="77" cy="77" r="77" fill="#05998b"/>
  <path fill="#fff" d="M81.11,26.35H45.83a1.52,1.52,0,0,0-1.53,1.52V81.11a1.52,1.52,0,0,0,1.53,1.52H81.11a1.52,1.52,0,0,0,1.52-1.52V27.87A1.52,1.52,0,0,0,81.11,26.35ZM72.1,72.1H54.84V36.29H72.1Z"/>
  <path fill="#fff" d="M126.17,81.11V45.83a1.52,1.52,0,0,0-1.52-1.52H90.12a1.52,1.52,0,0,0-1.53,1.52V81.11a1.53,1.53,0,0,0,1.53,1.52h34.53A1.52,1.52,0,0,0,126.17,81.11Zm-9-9H99.13V54.84h18Z"/>
  <path fill="#fff" d="M81.11,90.12H45.83a1.53,1.53,0,0,0-1.53,1.53v35.28a1.52,1.52,0,0,0,1.53,1.52H81.11a1.52,1.52,0,0,0,1.52-1.52V91.65A1.53,1.53,0,0,0,81.11,90.12ZM72.1,117.71H54.84V99.13H72.1Z"/>
  <path fill="#fff" d="M124.65,90.12H90.12a1.53,1.53,0,0,0-1.53,1.53v35.28a1.52,1.52,0,0,0,1.53,1.52h34.53a1.52,1.52,0,0,0,1.52-1.52V91.65A1.52,1.52,0,0,0,124.65,90.12Zm-9,27.59H99.13V99.13h16.48Z"/>
</svg> 