<svg xmlns="http://www.w3.org/2000/svg" viewBox="0 0 48 48">
  <path fill="#000" d="M23.81 22.74c0 .45-.67.82-1.49.82s-1.49-.37-1.49-.82.67-.82 1.49-.82 1.49.36 1.49.82zm3.38 0c0 .45.67.82 1.49.82s1.49-.37 1.49-.82-.67-.82-1.49-.82-1.49.36-1.49.82z"/>
  <path fill="#000" d="M24 44c11.05 0 20-8.95 20-20S35.05 4 24 4 4 12.95 4 24s8.95 20 20 20zm-.01-36.14c5.4 0 9.79 4.39 9.79 9.79 0 2.36-.84 4.54-2.23 6.23l.17.18a9.333 9.333 0 013.08 4.59h.07c.9 0 1.63-.73 1.63-1.65 0-.34.27-.61.61-.61s.61.27.61.61c0 1.59-1.26 2.87-2.84 2.87v.21c0 2.08-1.68 3.76-3.76 3.76h-1.78c-2.01 0-3.64-1.63-3.64-3.64 0-.01-.01-.02-.01-.03-1.01.25-2.09.4-3.25.4-5.65 0-10.17-3.93-10.17-9.31v-3.4c0-5.39 4.39-9.78 9.79-9.78l-.07-.01zm7.36 18.89c-.51-1.5-1.61-2.77-3.07-3.49a3.375 3.375 0 00-.87 2.26v1.61h3.94zM17.1 27.62c0 3.94 3.49 7.09 7.81 7.09 1.54 0 2.95-.37 4.16-1.01v.65c0 1.34 1.08 2.42 2.42 2.42h1.78c1.37 0 2.48-1.11 2.48-2.48v-2.25c0-.61.5-1.11 1.11-1.11.1 0 .19.01.29.04.21-.05.35-.24.35-.45a.433.433 0 00-.37-.42 2.4 2.4 0 01-1.36-2.33c0-1.27-.62-2.4-1.58-3.1a.615.615 0 01-.11-.92c1.23-1.42 1.99-3.26 1.99-5.29 0-3.53-2.25-6.53-5.4-7.65a8.372 8.372 0 00-2.82-.49H23.9c-4.67 0-8.45 3.79-8.45 8.45v3.4c0 1.89.58 3.59 1.53 4.95-1.24.92-1.86 2.6-.87 3.25.77.51 2.26-.08 2.98-1.76z"/>
</svg> 