<svg xmlns="http://www.w3.org/2000/svg" viewBox="0 0 1024 1024" fill="none">
  <path fill="#E6007A" d="M512 0c282.7 0 512 229.3 512 512s-229.3 512-512 512S0 794.7 0 512 229.3 0 512 0z"/>
  <path fill="#fff" d="M512.7 255.5c31.7 0 57.4 25.7 57.4 57.4s-25.7 57.4-57.4 57.4-57.4-25.7-57.4-57.4 25.7-57.4 57.4-57.4zM508.7 653.7c31.7 0 57.4 25.7 57.4 57.4s-25.7 57.4-57.4 57.4-57.4-25.7-57.4-57.4 25.7-57.4 57.4-57.4zM255.5 512c0 31.7-25.7 57.4-57.4 57.4s-57.4-25.7-57.4-57.4 25.7-57.4 57.4-57.4 57.4 25.7 57.4 57.4zM769.1 512c0 31.7-25.7 57.4-57.4 57.4s-57.4-25.7-57.4-57.4 25.7-57.4 57.4-57.4 57.4 25.7 57.4 57.4zM371.8 304.6c22.4 22.4 22.4 58.8 0 81.2s-58.8 22.4-81.2 0-22.4-58.8 0-81.2 58.8-22.4 81.2 0zM649.4 647c22.4 22.4 22.4 58.8 0 81.2s-58.8 22.4-81.2 0-22.4-58.8 0-81.2 58.8-22.4 81.2 0zM371.8 720c-22.4 22.4-58.8 22.4-81.2 0s-22.4-58.8 0-81.2 58.8-22.4 81.2 0 22.4 58.8 0 81.2zM649.4 385.4c-22.4 22.4-58.8 22.4-81.2 0s-22.4-58.8 0-81.2 58.8-22.4 81.2 0 22.4 58.8 0 81.2z"/>
  <circle cx="513" cy="512" r="80" fill="#fff"/>
</svg>
