<svg xmlns="http://www.w3.org/2000/svg" viewBox="0 0 512 512" fill="#E6007A">
  <path d="M256,42.667c-117.821,0-213.333,95.513-213.333,213.333S138.179,469.333,256,469.333S469.333,373.821,469.333,256S373.821,42.667,256,42.667z M138.667,298.667c-16.642,0-30.118-13.476-30.118-30.118s13.476-30.118,30.118-30.118s30.118,13.476,30.118,30.118  S155.309,298.667,138.667,298.667z M256,384c-16.642,0-30.118-13.476-30.118-30.118s13.476-30.118,30.118-30.118s30.118,13.476,30.118,30.118  S272.642,384,256,384z M225.882,256c0-16.642,13.476-30.118,30.118-30.118s30.118,13.476,30.118,30.118s-13.476,30.118-30.118,30.118  S225.882,272.642,225.882,256z M256,128c-16.642,0-30.118-13.476-30.118-30.118S239.358,67.764,256,67.764  s30.118,13.476,30.118,30.118S272.642,128,256,128z M373.333,298.667c-16.642,0-30.118-13.476-30.118-30.118s13.476-30.118,30.118-30.118  s30.118,13.476,30.118,30.118S389.975,298.667,373.333,298.667z"/>
</svg>
